<?xml version="1.0" standalone="no"?>
<!DOCTYPE svg PUBLIC "-//W3C//DTD SVG 20010904//EN"
 "http://www.w3.org/TR/2001/REC-SVG-20010904/DTD/svg10.dtd">
<svg version="1.0" xmlns="http://www.w3.org/2000/svg"
 width="185.000000pt" height="185.000000pt" viewBox="0 0 185.000000 185.000000"
 preserveAspectRatio="xMidYMid meet">

<g transform="translate(0.000000,185.000000) scale(0.100000,-0.100000)"
fill="#000000" stroke="none">
<path d="M1647 1830 c-8 -11 -17 -17 -20 -13 -4 3 -7 3 -7 0 0 -4 14 -20 31
-35 29 -26 30 -29 14 -42 -16 -14 -17 -13 -12 10 4 14 4 19 1 13 -3 -7 -12
-13 -20 -13 -11 0 -13 -4 -6 -17 7 -12 5 -24 -5 -40 -14 -21 -14 -23 1 -23 9
0 16 -4 16 -10 0 -5 6 -10 14 -10 8 0 18 -4 21 -10 4 -6 -5 -9 -19 -8 -15 1
-26 6 -26 10 0 4 -9 8 -20 8 -11 0 -20 -4 -20 -10 0 -5 7 -7 15 -4 10 4 15 0
15 -11 0 -10 5 -14 13 -9 6 4 9 4 5 -1 -4 -4 3 -16 15 -27 24 -21 21 -20 -33
4 -41 18 -154 34 -130 18 8 -5 29 -10 46 -10 17 0 34 -3 38 -7 4 -5 11 -8 14
-9 24 -3 40 -19 40 -40 0 -13 -3 -24 -7 -24 -4 0 -7 -9 -7 -19 0 -11 3 -18 7
-15 4 2 13 -4 20 -13 12 -15 12 -16 -4 -10 -11 4 -16 3 -12 -3 3 -5 2 -26 -4
-45 -5 -21 -6 -33 0 -30 5 4 9 1 9 -4 0 -6 -7 -11 -15 -11 -8 0 -15 -7 -15
-15 0 -8 5 -15 11 -15 5 0 8 -4 5 -9 -7 -11 52 -23 67 -14 6 3 7 1 3 -5 -4 -7
-1 -12 8 -12 8 0 16 -10 18 -22 2 -15 11 -24 26 -26 12 -2 22 -8 22 -14 0 -6
-9 -8 -20 -5 -11 3 -20 1 -20 -4 0 -5 -12 -9 -27 -9 -18 0 -24 3 -15 8 9 6 5
12 -13 20 -15 7 -24 8 -20 2 3 -5 -1 -10 -9 -10 -8 0 -17 8 -19 18 -4 13 -5
11 -6 -5 0 -13 4 -23 9 -23 6 0 10 -5 10 -11 0 -5 -4 -7 -10 -4 -6 3 -7 -1 -4
-9 3 -9 1 -16 -5 -16 -6 0 -11 -6 -11 -14 0 -36 -100 -20 -123 20 -4 8 -18 14
-30 14 -16 0 -18 -3 -9 -9 10 -6 8 -10 -8 -14 -23 -6 -181 16 -200 28 -7 4
-73 8 -148 9 -84 2 -151 8 -174 16 -30 11 -50 11 -100 2 -52 -10 -73 -9 -123
4 -88 24 -169 22 -240 -5 -33 -12 -73 -25 -90 -27 -56 -10 -160 -36 -179 -46
-13 -7 -16 -7 -12 1 12 19 -9 12 -27 -9 -9 -11 -25 -20 -35 -20 -30 0 -102
-110 -102 -155 l0 -37 37 32 c20 18 65 46 100 62 l63 30 102 -11 c56 -6 105
-16 109 -22 4 -7 12 -8 19 -4 7 4 16 2 20 -5 4 -6 19 -13 34 -13 14 -1 26 -8
26 -14 0 -7 7 -13 15 -13 8 0 15 -6 15 -12 0 -20 45 -68 63 -68 20 0 16 -43
-6 -68 -24 -26 -22 -27 27 -30 30 -1 48 4 57 14 7 9 24 20 37 25 12 5 22 15
21 21 -1 7 1 20 4 28 3 8 7 24 9 35 2 13 12 21 31 23 29 4 34 20 16 54 -10 18
-8 19 12 13 20 -7 21 -5 16 23 -4 20 -2 32 6 35 9 3 9 10 0 30 -12 25 -11 27
12 27 13 0 28 6 32 13 4 7 36 21 71 30 58 16 69 16 138 2 41 -8 82 -23 92 -33
18 -18 22 -45 9 -58 -4 -4 -7 -24 -7 -45 0 -21 -4 -49 -9 -62 -5 -13 -12 -44
-15 -68 -14 -99 -32 -185 -44 -207 -10 -18 -21 -22 -55 -21 -52 2 -189 -10
-195 -16 -3 -3 10 -5 28 -5 18 0 30 -3 27 -7 -10 -10 -112 -4 -115 7 -5 13
-59 13 -64 0 -2 -5 -18 -6 -41 -1 -20 5 -39 5 -42 1 -3 -5 15 -12 40 -15 25
-4 45 -11 45 -16 0 -11 -51 -8 -67 4 -9 6 -18 5 -29 -3 -12 -11 -15 -11 -12 1
2 11 -9 13 -52 12 -40 -2 -49 0 -35 6 l20 10 -20 1 c-11 2 -23 2 -27 1 -5 0
-8 4 -8 9 0 7 16 9 40 7 22 -2 43 0 46 4 3 5 -11 9 -30 9 -20 0 -36 4 -36 8 0
4 -9 8 -20 8 -11 0 -20 -4 -20 -8 0 -4 -9 -8 -21 -8 -11 0 -17 5 -14 10 3 6 1
10 -4 10 -6 0 -11 -4 -11 -10 0 -5 -7 -10 -16 -10 -8 0 -13 4 -10 9 4 5 -2 7
-12 4 -10 -2 -42 0 -70 5 -47 8 -52 7 -52 -8 0 -10 -7 -20 -15 -24 -8 -3 -15
-1 -15 4 0 6 5 10 10 10 17 0 11 18 -7 24 -10 2 -71 8 -136 12 l-118 6 2 -141
1 -141 24 0 c31 0 31 -12 -1 -36 -27 -20 -32 -43 -13 -62 9 -9 9 -12 0 -12 -7
0 -12 -5 -12 -11 0 -18 28 -39 44 -33 23 9 19 26 -4 19 -11 -4 -20 -2 -20 4 0
6 14 11 30 11 32 0 37 9 18 28 -9 9 -8 12 5 12 9 0 17 5 17 11 0 6 -9 8 -22 3
-34 -10 -43 -10 -43 1 0 6 5 10 10 10 6 0 25 10 42 23 17 12 37 22 45 22 7 0
1 8 -14 18 l-28 18 29 22 c16 11 31 18 34 15 4 -3 30 -7 59 -9 68 -4 88 -7 88
-14 0 -3 20 -6 45 -8 25 -1 45 1 45 6 0 5 -11 8 -25 7 -14 -2 -25 0 -25 5 0 8
-64 20 -108 20 -12 0 -22 5 -22 11 0 7 -11 9 -27 6 -17 -3 -45 3 -73 16 -40
20 -42 22 -20 25 13 2 26 -1 28 -7 2 -7 8 -6 16 2 8 6 11 18 9 24 -3 7 2 13
10 13 8 0 18 6 20 13 3 6 6 2 6 -10 1 -12 -5 -24 -11 -26 -7 -3 5 -5 27 -5 22
0 30 3 17 5 -29 6 -18 23 15 23 17 0 27 -7 30 -20 4 -16 11 -19 27 -14 32 10
43 24 18 24 -12 0 -22 5 -22 11 0 6 7 8 16 5 9 -3 22 -6 30 -6 8 0 14 -7 14
-15 0 -8 7 -15 15 -15 8 0 15 -7 15 -16 0 -8 5 -12 10 -9 6 3 10 0 10 -7 0 -7
8 -1 18 15 9 15 22 25 29 22 7 -2 13 0 13 5 0 6 10 9 23 9 18 -1 19 -2 4 -6
-16 -4 -15 -7 8 -19 32 -16 118 -15 104 2 -5 7 9 9 46 7 37 -1 55 2 55 9 0 9
3 9 12 0 7 -7 30 -12 52 -11 34 0 37 2 21 10 -16 7 -14 9 12 6 18 -2 29 1 26
6 -3 6 9 8 30 5 20 -2 38 -1 39 2 2 4 14 3 28 -1 22 -6 23 -7 4 -8 -12 -1 -24
-7 -27 -14 -7 -18 75 -16 90 3 11 13 14 13 22 0 13 -19 -22 -34 -61 -26 -16 3
-28 1 -28 -4 0 -5 -15 -7 -32 -6 -18 2 -24 1 -13 -1 11 -3 26 -10 33 -15 8 -7
12 -7 12 1 0 15 51 14 70 -2 19 -15 21 -77 3 -77 -17 0 -17 -26 0 -34 10 -5
10 -7 0 -12 -7 -3 -13 -14 -13 -25 0 -15 -7 -19 -37 -19 -28 0 -34 3 -23 10
13 8 12 10 -2 10 -10 0 -18 -4 -18 -9 0 -8 -16 -9 -63 -2 -5 0 -5 6 -1 13 5 8
2 9 -9 5 -10 -4 -24 -10 -32 -13 -8 -3 -15 -1 -15 5 0 6 -6 11 -14 11 -8 0
-13 -8 -11 -17 2 -10 4 -29 4 -43 1 -18 4 -21 10 -11 9 14 51 7 51 -9 0 -11
-92 -4 -160 11 -25 5 -58 11 -75 13 -65 9 -97 19 -84 27 10 6 5 11 -16 19 -22
8 -30 8 -37 -2 -8 -10 -11 -10 -15 0 -2 6 -9 12 -14 12 -6 0 -7 -5 -3 -11 4
-7 0 -9 -12 -5 -11 3 -37 8 -59 11 -22 4 -55 10 -72 15 -19 5 -35 5 -39 -1 -3
-5 2 -9 11 -9 12 0 15 -5 9 -22 -4 -13 -7 -30 -8 -38 -1 -18 36 -20 41 -2 3 6
-3 12 -12 12 -14 0 -13 3 3 20 16 17 23 19 50 9 27 -9 30 -13 19 -30 -6 -10
-21 -19 -32 -19 -17 0 -17 -2 -5 -10 8 -5 11 -10 6 -10 -5 0 -3 -7 4 -15 10
-12 10 -15 -3 -15 -9 0 -18 4 -22 10 -3 5 -13 6 -22 3 -12 -5 -14 -3 -8 7 5 8
4 11 -3 6 -5 -3 -42 1 -82 9 -39 8 -73 15 -74 15 -2 0 -6 -8 -9 -19 -4 -16 0
-17 28 -11 22 5 43 2 67 -10 18 -9 39 -15 45 -13 5 2 16 -3 23 -12 7 -8 18
-15 25 -15 8 0 16 -6 18 -12 4 -10 7 -10 15 0 12 17 42 4 42 -19 0 -10 -4 -19
-10 -19 -5 0 -7 8 -4 18 5 14 4 14 -6 -2 -10 -14 -10 -20 1 -27 25 -15 2 -19
-27 -4 -16 8 -41 15 -56 15 -15 0 -38 4 -52 10 -17 6 -26 6 -26 0 0 -6 14 -13
30 -17 17 -3 33 -9 36 -14 2 -4 11 -6 19 -3 8 3 24 -1 37 -10 28 -20 33 -20
52 0 9 8 16 11 16 5 0 -20 18 -11 25 11 4 13 7 26 6 31 -2 13 36 7 80 -13 24
-11 37 -20 29 -20 -13 0 -13 -2 -1 -9 8 -5 11 -16 8 -25 -4 -10 -1 -16 7 -16
8 0 16 -6 18 -12 3 -8 9 -4 17 10 6 12 16 22 21 22 5 0 2 -12 -6 -28 -18 -34
-18 -42 1 -42 8 0 15 -4 15 -8 0 -4 -16 -6 -36 -4 -25 3 -39 11 -46 27 -6 13
-25 27 -46 33 -43 14 -55 8 -18 -9 27 -13 35 -29 14 -29 -7 0 -26 7 -42 15
-15 8 -41 15 -57 15 -15 0 -31 5 -34 10 -3 6 -19 10 -36 10 -16 0 -29 4 -29 9
0 8 -49 23 -117 36 -34 7 -63 28 -81 60 -6 11 -12 14 -12 8 0 -7 -7 -13 -14
-13 -11 0 -15 -11 -13 -40 1 -21 4 -34 8 -28 11 18 39 1 33 -19 -5 -15 -3 -15
13 2 17 20 20 20 55 6 32 -14 36 -19 31 -42 -3 -18 0 -28 12 -32 9 -4 14 -3
10 3 -9 15 0 12 39 -9 19 -11 37 -17 41 -13 4 4 4 -3 1 -15 -7 -23 7 -32 19
-13 7 11 48 13 59 3 4 -4 28 -8 54 -8 26 -1 54 -4 62 -7 8 -4 37 -13 64 -22
60 -19 206 -22 206 -4 0 9 3 9 12 0 9 -9 149 -12 570 -12 l558 0 0 515 c0 424
-2 515 -13 515 -8 0 -19 11 -25 25 -10 22 -9 25 13 31 l25 6 0 379 0 379 -61
0 c-47 0 -65 -4 -75 -17 -13 -17 -14 -17 -8 0 3 9 1 17 -5 17 -6 0 -11 -9 -11
-21 0 -12 -4 -17 -11 -14 -6 4 -8 13 -5 21 8 21 -11 17 -27 -6z m44 -177 c13
-16 12 -17 -3 -4 -10 7 -18 15 -18 17 0 8 8 3 21 -13z m11 -285 c-4 -16 -2
-19 9 -13 12 8 12 6 0 -8 -14 -18 -36 -24 -26 -7 3 6 2 10 -3 10 -6 0 -13 7
-16 16 -4 12 -2 15 9 11 8 -4 17 -2 20 3 10 17 13 11 7 -12z m-45 -160 c-3 -8
-6 -5 -6 6 -1 11 2 17 5 13 3 -3 4 -12 1 -19z m53 -20 c19 -21 21 -21 14 -3
-5 15 -4 17 5 9 6 -6 16 -25 21 -43 l9 -33 -27 17 c-15 10 -31 23 -37 30 -5 6
-17 14 -25 18 -12 4 -11 6 3 6 10 1 15 6 12 11 -11 18 4 11 25 -12z m-1220
-12 c0 -13 -58 -31 -80 -25 -30 7 -14 16 40 22 19 2 36 5 38 5 1 1 2 0 2 -2z
m-110 -37 c0 -6 -4 -7 -10 -4 -5 3 -10 2 -10 -4 0 -6 -7 -7 -17 -4 -9 4 -14 2
-10 -3 3 -6 -9 -10 -29 -10 -39 0 -44 9 -12 23 31 13 88 15 88 2z m-120 -29
c0 -5 -4 -10 -10 -10 -5 0 -10 5 -10 10 0 6 5 10 10 10 6 0 10 -4 10 -10z
m250 -10 c0 -5 -4 -10 -10 -10 -5 0 -10 5 -10 10 0 6 5 10 10 10 6 0 10 -4 10
-10z m1070 -150 c0 -5 -4 -10 -10 -10 -5 0 -10 5 -10 10 0 6 5 10 10 10 6 0
10 -4 10 -10z m-1427 -237 c-7 -2 -19 -2 -25 0 -7 3 -2 5 12 5 14 0 19 -2 13
-5z m84 -9 c-3 -3 -12 -4 -19 -1 -8 3 -5 6 6 6 11 1 17 -2 13 -5z m-47 -8 c0
-2 -7 -6 -15 -10 -8 -3 -15 -1 -15 4 0 6 7 10 15 10 8 0 15 -2 15 -4z m155 -4
c11 -4 21 -13 23 -19 3 -17 -15 -17 -20 -1 -3 9 -9 8 -22 -5 -20 -19 -36 -22
-36 -6 0 5 4 8 9 5 5 -3 11 1 14 9 4 9 1 12 -9 8 -7 -3 -14 0 -14 6 0 12 23
13 55 3z m82 -21 c1 -11 -6 -21 -18 -24 -17 -5 -18 -3 -8 9 10 12 9 13 -5 8
-12 -5 -15 -2 -10 10 9 22 39 20 41 -3z m-194 2 c-7 -2 -19 -2 -25 0 -7 3 -2
5 12 5 14 0 19 -2 13 -5z m235 -2 c10 -6 9 -10 -7 -14 -14 -3 -21 0 -21 9 0
16 9 18 28 5z m342 -31 c0 -5 -2 -10 -4 -10 -3 0 -8 5 -11 10 -3 6 -1 10 4 10
6 0 11 -4 11 -10z m-415 -280 c3 -5 2 -10 -4 -10 -5 0 -13 5 -16 10 -3 6 -2
10 4 10 5 0 13 -4 16 -10z m-35 -10 c0 -5 -4 -10 -10 -10 -5 0 -10 5 -10 10 0
6 5 10 10 10 6 0 10 -4 10 -10z m92 -12 c-9 -9 -42 -1 -42 12 0 4 12 5 26 2
15 -3 22 -8 16 -14z m-32 -8 c26 -16 3 -22 -27 -6 -23 13 -24 15 -8 15 11 1
27 -3 35 -9z m465 1 c3 -6 -13 -10 -36 -9 -27 0 -37 3 -28 9 19 12 56 11 64 0z
m-337 -14 c6 -5 12 -4 12 2 0 6 11 6 32 1 17 -5 43 -7 56 -3 18 4 29 1 39 -12
7 -11 13 -13 13 -7 0 21 38 13 66 -13 15 -14 24 -25 21 -25 -3 0 -13 -3 -23
-7 -13 -5 -16 -3 -11 10 4 11 1 17 -8 17 -8 0 -15 -4 -15 -9 0 -13 -151 -6
-204 10 -55 16 -69 46 -22 45 17 -1 37 -5 44 -9z m-211 -4 c-4 -3 1 -12 11
-19 16 -12 15 -13 -5 -14 -13 0 -23 6 -23 13 0 14 9 27 18 27 3 0 2 -3 -1 -7z
m88 -33 c8 -13 -15 -13 -35 0 -12 8 -11 10 7 10 12 0 25 -4 28 -10z m451 -5
c13 -11 14 -14 4 -13 -8 2 -14 -2 -13 -9 2 -9 -5 -9 -27 -1 -30 10 -36 19 -23
31 11 12 38 8 59 -8z m-386 -6 c-12 -8 -9 -9 13 -5 17 4 27 2 27 -5 0 -6 7 -8
16 -5 8 3 12 2 9 -4 -3 -6 2 -9 12 -8 25 3 103 -12 103 -20 0 -4 -9 -13 -21
-20 -12 -8 -19 -9 -15 -4 9 15 -42 32 -98 32 -40 0 -55 4 -60 16 -7 19 0 34
17 34 7 0 6 -4 -3 -11z m316 -49 c8 0 14 -8 14 -17 0 -14 -2 -15 -9 -4 -11 17
-25 -4 -15 -21 6 -10 5 -10 -7 -1 -12 10 -18 10 -28 0 -11 -10 -11 -8 -2 10
14 27 14 44 0 20 -10 -18 -29 -15 -29 5 0 6 3 8 6 5 4 -3 16 0 28 9 12 8 22
10 24 4 2 -5 10 -10 18 -10z m-196 -10 c8 -5 11 -10 5 -10 -5 0 -17 5 -25 10
-8 5 -10 10 -5 10 6 0 17 -5 25 -10z m260 -5 c0 -9 -6 -12 -15 -9 -8 4 -15 10
-15 15 0 5 7 9 15 9 8 0 15 -7 15 -15z m-153 -27 c-3 -8 -6 -5 -6 6 -1 11 2
17 5 13 3 -3 4 -12 1 -19z m-76 -8 c10 0 6 -96 -4 -106 -8 -8 -47 5 -47 16 0
5 -7 16 -16 24 -14 15 -14 17 1 22 9 4 20 1 25 -5 5 -9 9 -5 14 11 7 22 7 22
16 3 8 -19 9 -19 9 4 1 20 -3 23 -24 19 -24 -5 -32 2 -18 16 4 3 13 4 21 1 7
-3 18 -5 23 -5z m-387 -71 c-5 -9 -28 -1 -61 21 -38 25 -26 29 22 7 24 -11 42
-24 39 -28z m530 15 c3 -7 1 -16 -4 -19 -6 -4 -10 1 -10 9 0 19 -11 21 -28 4
-9 -9 -12 -8 -12 6 0 10 -4 14 -12 10 -6 -4 -8 -3 -5 3 9 14 65 4 71 -13z
m-479 -14 c3 -5 -1 -10 -9 -10 -9 0 -16 5 -16 10 0 6 4 10 9 10 6 0 13 -4 16
-10z m175 0 c0 -5 -2 -10 -4 -10 -3 0 -8 5 -11 10 -3 6 -1 10 4 10 6 0 11 -4
11 -10z m-62 -20 c34 -7 62 -17 62 -21 0 -12 0 -12 -78 7 -37 9 -71 21 -77 27
-7 6 -3 7 10 4 11 -3 48 -11 83 -17z m319 4 c-3 -3 -12 -4 -19 -1 -8 3 -5 6 6
6 11 1 17 -2 13 -5z m-201 -35 l19 -22 -30 7 c-36 9 -39 12 -30 25 9 16 20 13
41 -10z m141 5 c-3 -3 -12 -4 -19 -1 -8 3 -5 6 6 6 11 1 17 -2 13 -5z m63 -9
c11 -13 10 -14 -4 -9 -9 3 -16 10 -16 15 0 13 6 11 20 -6z m-108 -10 c3 0 10
-3 14 -7 13 -13 -26 -21 -41 -8 -17 14 -10 34 8 23 7 -4 15 -8 19 -8z"/>
<path d="M508 303 c6 -2 18 -2 25 0 6 3 1 5 -13 5 -14 0 -19 -2 -12 -5z"/>
<path d="M560 300 c0 -5 7 -10 15 -10 8 0 15 5 15 10 0 6 -7 10 -15 10 -8 0
-15 -4 -15 -10z"/>
<path d="M640 293 c0 -13 5 -23 10 -23 13 0 13 11 0 30 -8 12 -10 11 -10 -7z"/>
<path d="M838 273 c7 -3 16 -2 19 1 4 3 -2 6 -13 5 -11 0 -14 -3 -6 -6z"/>
<path d="M625 90 c-3 -5 -1 -10 4 -10 6 0 11 5 11 10 0 6 -2 10 -4 10 -3 0 -8
-4 -11 -10z"/>
<path d="M1549 1691 c-27 -30 -30 -50 -9 -61 17 -9 20 -7 20 10 0 11 6 20 13
20 9 0 9 2 -1 8 -7 5 -10 16 -6 25 8 21 4 20 -17 -2z"/>
<path d="M1590 1699 c0 -5 5 -7 10 -4 6 3 10 8 10 11 0 2 -4 4 -10 4 -5 0 -10
-5 -10 -11z"/>
<path d="M1498 1683 c7 -3 16 -2 19 1 4 3 -2 6 -13 5 -11 0 -14 -3 -6 -6z"/>
<path d="M1466 1545 c-3 -9 0 -15 9 -15 9 0 12 6 9 15 -4 8 -7 15 -9 15 -2 0
-5 -7 -9 -15z"/>
<path d="M1470 1470 c0 -5 7 -7 15 -4 8 4 15 8 15 10 0 2 -7 4 -15 4 -8 0 -15
-4 -15 -10z"/>
<path d="M1477 1421 c3 -13 -1 -20 -13 -23 -14 -2 -15 -5 -3 -14 10 -8 21 -7
39 2 18 10 20 14 8 14 -11 0 -16 6 -13 20 2 12 -2 20 -10 20 -8 0 -11 -7 -8
-19z"/>
<path d="M490 980 c0 -5 5 -10 11 -10 5 0 7 5 4 10 -3 6 -8 10 -11 10 -2 0 -4
-4 -4 -10z"/>
<path d="M557 793 c-4 -3 -7 -11 -7 -17 0 -6 5 -5 12 2 6 6 9 14 7 17 -3 3 -9
2 -12 -2z"/>
<path d="M818 673 c7 -3 16 -2 19 1 4 3 -2 6 -13 5 -11 0 -14 -3 -6 -6z"/>
<path d="M810 579 c0 -5 5 -7 10 -4 6 3 10 8 10 11 0 2 -4 4 -10 4 -5 0 -10
-5 -10 -11z"/>
<path d="M412 571 c-11 -7 -11 -9 0 -14 9 -3 15 1 15 9 0 8 -1 14 -1 14 -1 0
-7 -4 -14 -9z"/>
<path d="M451 564 c14 -17 42 -18 37 -1 -3 6 -14 13 -26 13 -18 1 -20 -2 -11
-12z"/>
<path d="M670 569 c-12 -8 -10 -9 9 -4 16 5 21 4 17 -4 -4 -6 -2 -11 3 -11 6
0 11 5 11 11 0 5 3 8 8 6 4 -3 16 -1 27 4 15 6 10 8 -20 8 -22 0 -47 -4 -55
-10z"/>
<path d="M543 554 c-18 -19 -16 -29 2 -14 10 9 15 9 15 1 0 -6 5 -11 10 -11 6
0 10 7 10 16 0 8 -4 13 -9 10 -5 -4 -11 -2 -13 3 -1 5 -9 3 -15 -5z"/>
<path d="M650 540 c-8 -5 -12 -11 -10 -14 3 -2 14 2 24 10 22 15 10 19 -14 4z"/>
<path d="M426 533 c-14 -4 -16 -7 -6 -13 13 -8 5 -30 -11 -30 -6 0 -8 4 -4 9
3 5 2 12 -3 15 -4 2 -8 -4 -9 -14 -1 -12 8 -23 25 -29 26 -11 26 -11 2 -7 -14
2 -34 6 -45 9 -11 2 -14 2 -7 0 6 -3 12 -9 12 -14 0 -5 12 -9 28 -9 l27 -1
-28 -12 c-27 -12 -26 -12 24 -14 34 -1 47 2 38 8 -12 7 -12 9 1 9 13 0 13 1 0
10 -13 9 -13 10 0 10 13 0 13 2 0 11 -12 9 -12 10 3 5 10 -3 27 -6 38 -6 10 0
19 -7 19 -15 0 -18 -16 -20 -23 -2 -4 9 -8 9 -16 -2 -11 -18 3 -51 22 -50 9 0
9 2 0 6 -7 2 -13 9 -13 14 0 24 130 -5 131 -30 0 -17 19 21 23 48 2 8 8 17 14
19 7 2 9 -5 7 -18 -2 -11 0 -18 6 -15 5 4 7 10 4 15 -3 5 4 8 15 7 11 -1 20
-4 20 -7 0 -3 11 -6 25 -6 14 -1 25 2 25 7 0 13 54 11 68 -3 7 -7 12 -8 12 -4
0 5 7 3 15 -4 12 -10 15 -10 15 2 0 8 12 15 32 16 69 5 31 9 -141 15 -99 3
-186 9 -193 14 -7 4 -22 8 -33 9 -84 3 -96 5 -90 14 3 6 1 10 -5 10 -7 0 -10
7 -6 15 3 8 4 14 3 14 -1 -1 -11 -4 -21 -6z m219 -92 c-2 -18 -35 -28 -35 -11
0 6 -8 10 -17 9 -10 -1 -27 0 -38 1 -14 2 -11 4 10 9 53 12 83 9 80 -8z"/>
<path d="M730 526 c0 -9 5 -16 10 -16 6 0 10 4 10 9 0 6 -4 13 -10 16 -5 3
-10 -1 -10 -9z"/>
<path d="M248 483 c6 -2 18 -2 25 0 6 3 1 5 -13 5 -14 0 -19 -2 -12 -5z"/>
<path d="M298 473 c7 -3 16 -2 19 1 4 3 -2 6 -13 5 -11 0 -14 -3 -6 -6z"/>
<path d="M330 461 c0 -6 4 -13 10 -16 6 -3 7 1 4 9 -7 18 -14 21 -14 7z"/>
<path d="M150 454 c0 -17 27 -37 42 -31 9 3 6 7 -7 13 -11 4 -23 12 -27 18 -5
8 -8 8 -8 0z"/>
<path d="M248 433 c7 -3 16 -2 19 1 4 3 -2 6 -13 5 -11 0 -14 -3 -6 -6z"/>
<path d="M683 403 c9 -2 23 -2 30 0 6 3 -1 5 -18 5 -16 0 -22 -2 -12 -5z"/>
<path d="M120 378 c0 -14 30 -22 41 -11 7 7 2 12 -15 15 -14 3 -26 1 -26 -4z"/>
<path d="M700 380 c0 -5 5 -10 10 -10 6 0 10 5 10 10 0 6 -4 10 -10 10 -5 0
-10 -4 -10 -10z"/>
<path d="M0 274 c0 -8 5 -12 10 -9 6 4 8 11 5 16 -9 14 -15 11 -15 -7z"/>
<path d="M224 261 c4 -5 1 -11 -6 -13 -9 -3 -9 -6 0 -12 7 -4 12 -3 12 3 0 6
8 7 18 4 15 -6 15 -5 3 10 -14 18 -37 24 -27 8z"/>
<path d="M420 186 c0 -8 -6 -17 -12 -20 -7 -3 -1 -3 13 0 15 3 30 1 33 -5 8
-13 36 -15 36 -3 0 8 -52 42 -64 42 -3 0 -6 -6 -6 -14z"/>
<path d="M70 166 c0 -8 31 -36 41 -36 5 0 9 7 9 16 0 8 -4 13 -9 9 -5 -3 -12
-1 -16 5 -6 10 -25 14 -25 6z"/>
<path d="M6 153 c-3 -4 -6 -25 -6 -48 0 -34 4 -44 26 -55 20 -11 27 -11 33 -2
5 9 12 7 26 -8 10 -11 24 -19 31 -16 7 3 18 -2 25 -10 12 -14 14 -14 25 1 12
16 14 16 36 1 26 -18 93 -22 82 -5 -4 8 3 9 26 4 21 -5 30 -4 26 3 -10 17 -57
24 -74 10 -12 -10 -16 -10 -19 0 -3 6 -11 12 -19 12 -8 0 -19 12 -24 26 -7 17
-14 23 -22 17 -22 -13 -40 -12 -55 3 -8 8 -21 14 -29 14 -22 0 -27 3 -56 32
-14 14 -29 24 -32 21z"/>
<path d="M348 153 c7 -3 16 -2 19 1 4 3 -2 6 -13 5 -11 0 -14 -3 -6 -6z"/>
<path d="M0 34 c0 -23 18 -34 53 -33 21 0 21 1 -2 10 -13 5 -30 17 -37 27 -12
16 -13 15 -14 -4z"/>
<path d="M350 10 c0 -5 10 -10 23 -10 18 0 19 2 7 10 -19 13 -30 13 -30 0z"/>
</g>
</svg>
